/vscmnt/brussel_pixiu_data/_data_brussel/112/vsc11236/PredSimResults/SUBJ09mtu3D/weighted-trackIG/worker_03.mot
version=1
nRows=11
nColumns=50
inDegrees=yes
endheader
                time	         pelvis_tilt	         pelvis_list	     pelvis_rotation	           pelvis_tx	           pelvis_ty	           pelvis_tz	       hip_flexion_r	     hip_adduction_r	      hip_rotation_r	        knee_angle_r	       ankle_angle_r	         mtp_angle_r	       hip_flexion_l	     hip_adduction_l	      hip_rotation_l	        knee_angle_l	       ankle_angle_l	         mtp_angle_l	    lumbar_extension	      lumbar_bending	     lumbar_rotation	 ercspn_r/activation	 intobl_r/activation	 extobl_r/activation	    abd_r/activation	    add_r/activation	hamstrings_r/activation	bifemsh_r/activation	glut_max_r/activation	iliopsoas_r/activation	rect_fem_r/activation	  vasti_r/activation	gastroc_r/activation	 soleus_r/activation	tib_ant_r/activation	 ercspn_l/activation	 intobl_l/activation	 extobl_l/activation	    abd_l/activation	    add_l/activation	hamstrings_l/activation	bifemsh_l/activation	glut_max_l/activation	iliopsoas_l/activation	rect_fem_l/activation	  vasti_l/activation	gastroc_l/activation	 soleus_l/activation	tib_ant_l/activation	
          0.64059018	         -7.61180984	          4.54873941	         -7.64406654	          0.74308461	          0.98199601	          0.01306570	        -10.64421113	         -4.74300406	          6.07096673	         -5.68429299	         11.32626233	         26.00190817	         31.17045446	          1.30387118	         -5.25366326	         -1.90020345	          6.66186272	          0.21329697	         -0.57571102	         -2.81355226	          3.66919685	          0.03479889	          0.00999999	          0.00999999	          0.06059916	          0.01063196	          0.02441969	          0.14560491	          0.05707612	          0.50235325	          0.00999999	          0.00999999	          0.35383743	          0.29050624	          0.01724605	          0.09386372	          0.12906059	          0.03486758	          0.01213529	          0.06190634	          0.14509622	          0.21395023	          0.00999999	          0.13027777	          0.00999999	          0.00999999	          0.00999999	          0.00999999	          0.26096069	
          0.65340199	         -7.71033653	          4.48546423	         -7.65568960	          0.76092492	          0.97977729	          0.01280993	        -10.90610024	         -4.69707555	          5.67957233	         -6.97054780	         10.75129246	         27.96979124	         31.39535687	          1.40336542	         -5.04633674	         -3.74998614	          6.26005010	          0.21825371	         -0.29389369	         -3.13374144	          3.78166466	          0.07723710	          0.00999999	          0.00999999	          0.04993627	          0.03505435	          0.02012285	          0.11998459	          0.04703313	          0.51061589	          0.00999999	          0.00999999	          0.32728237	          0.27437644	          0.01421147	          0.07734767	          0.10779211	          0.02873236	          0.00999999	          0.11061666	          0.12537466	          0.17630402	          0.06514000	          0.10735438	          0.00999999	          0.00999999	          0.02315885	          0.01472655	          0.27160385	
          0.66621379	         -7.78823979	          4.41793810	         -7.61953248	          0.77922799	          0.97781627	          0.01248406	        -11.04914101	         -4.63568191	          5.26503919	         -8.55039693	         10.02105942	         30.01223404	         31.42567718	          1.48918845	         -4.81766730	         -5.51608482	          5.79988656	          0.20066944	          0.01464492	         -3.45905627	          3.86400857	          0.07491714	          0.00999999	          0.00999999	          0.04114959	          0.02888627	          0.02183102	          0.09887237	          0.03875729	          0.49543668	          0.00999999	          0.01787110	          0.29833966	          0.25470962	          0.01171085	          0.06373774	          0.08882525	          0.02367668	          0.05950959	          0.09491548	          0.10972998	          0.14528196	          0.11111139	          0.08846454	          0.00999999	          0.00999999	          0.01908387	          0.01213530	          0.32199420	
          0.67902559	         -7.84855408	          4.33956428	         -7.53592256	          0.79768719	          0.97636830	          0.01206096	        -10.98054284	         -4.54781201	          4.83633136	        -10.53466371	          9.07128018	         32.12459611	         31.28083049	          1.58192964	         -4.62534524	         -6.97650083	          5.17557272	          0.17879993	          0.31702555	         -3.77862990	          3.91261093	          0.10608000	          0.00999999	          0.00999999	          0.03390900	          0.03718600	          0.02052823	          0.08147501	          0.03193764	          0.47717016	          0.00999999	          0.01472654	          0.24584447	          0.21159051	          0.00999999	          0.07315112	          0.07319575	          0.01951058	          0.11823392	          0.12145343	          0.09110790	          0.11971846	          0.16248474	          0.07289852	          0.00999999	          0.00999999	          0.01572592	          0.01000000	          0.35596526	
          0.69183740	         -7.89025679	          4.25424750	         -7.40837358	          0.81604621	          0.97560603	          0.01155042	        -10.61815468	         -4.43385675	          4.39497913	        -13.03760940	          7.89969059	         34.18961837	         31.04369084	          1.68937343	         -4.46195720	         -8.32483662	          4.69059852	          0.14799939	          0.58999829	         -4.09796598	          3.92531813	          0.13612582	          0.00999999	          0.00999999	          0.02794245	          0.05295015	          0.01777850	          0.06713884	          0.02631796	          0.44071015	          0.00999999	          0.01213529	          0.20258622	          0.17435951	          0.00999999	          0.06973388	          0.06031639	          0.01607754	          0.15443035	          0.14196645	          0.07507675	          0.09865307	          0.19530924	          0.06007146	          0.00999999	          0.00999999	          0.01295882	          0.00999999	          0.37785315	
          0.70464920	         -7.91176079	          4.16314763	         -7.23878505	          0.83412018	          0.97557523	          0.01096828	         -9.91492703	         -4.29592103	          3.93690866	        -16.11640010	          6.51833193	         36.00319019	         30.76064508	          1.80754477	         -4.31206037	         -9.64043695	          4.41363073	          0.12830226	          0.81816438	         -4.41861268	          3.90041067	          0.15475019	          0.00999999	          0.00999999	          0.02302576	          0.07490932	          0.02400484	          0.05532524	          0.02168711	          0.37927712	          0.00999999	          0.00999999	          0.16693960	          0.14367960	          0.00999999	          0.07052193	          0.04970325	          0.01324857	          0.17020929	          0.13335012	          0.06447586	          0.08129429	          0.20599305	          0.04950142	          0.00999999	          0.06373399	          0.01067861	          0.00999999	          0.38431334	
          0.71746100	         -7.91350163	          4.05624903	         -7.02968329	          0.85181209	          0.97628781	          0.01035081	         -8.87053740	         -4.13015613	          3.45361060	        -19.74548682	          4.98916379	         37.16111014	         30.39365679	          1.92545527	         -4.15773417	        -10.82004952	          4.24361604	          0.11035146	          0.99535205	         -4.73064489	          3.83754190	          0.16390212	          0.00999999	          0.00999999	          0.01897420	          0.08830420	          0.02168711	          0.04656414	          0.01787110	          0.31254036	          0.00999999	          0.00999999	          0.13756528	          0.11839805	          0.00999999	          0.05811305	          0.04095758	          0.01091738	          0.16775883	          0.10988613	          0.05528473	          0.06698993	          0.19373448	          0.04079126	          0.00999999	          0.13787952	          0.00999999	          0.00999999	          0.38511997	
          0.73027281	         -7.89746414	          3.92274634	         -6.78200370	          0.86909661	          0.97774410	          0.00972904	         -7.52114501	         -3.93697508	          2.94141745	        -23.82872550	          3.33301638	         37.33383572	         29.88071517	          2.03516266	         -3.97515097	        -11.75167573	          4.19391943	          0.09613392	          1.12183483	         -5.02206415	          3.73670142	          0.16711967	          0.00999999	          0.00999999	          0.01563554	          0.09850983	          0.01787110	          0.06446382	          0.01472654	          0.25754645	          0.00999999	          0.00999999	          0.11335960	          0.09756499	          0.00999999	          0.04788761	          0.03375077	          0.00999999	          0.16020040	          0.09055081	          0.05173649	          0.05520253	          0.17375826	          0.03361372	          0.00999999	          0.18615486	          0.00999999	          0.00999999	          0.37687488	
          0.74308461	         -7.86625247	          3.75262752	         -6.49593326	          0.88598902	          0.97987799	          0.00912873	         -5.92066272	         -3.71506882	          2.42064602	        -28.20994952	          1.43171176	         36.54404132	         29.18347712	          2.12688966	         -3.74546625	        -12.36670407	          4.25497280	          0.08780917	          1.20186659	         -5.28153368	          3.59771777	          0.16470034	          0.00999999	          0.00999999	          0.01288434	          0.10968469	          0.01472654	          0.07488134	          0.01213529	          0.21222915	          0.00999999	          0.00999999	          0.09341309	          0.08039767	          0.02589161	          0.03946141	          0.02781206	          0.00999999	          0.15438066	          0.07461769	          0.04857362	          0.04548921	          0.15223834	          0.02769912	          0.00999999	          0.21089636	          0.00999999	          0.00999999	          0.36452365	
          0.75589641	         -7.82225208	          3.53729457	         -6.17046951	          0.90248286	          0.98254699	          0.00857147	         -4.12439323	         -3.45590978	          1.91892481	        -32.76127031	         -0.57581143	         34.53256364	         28.30998649	          2.18856736	         -3.45063600	        -12.67402734	          4.40821596	          0.08573493	          1.23584911	         -5.49978907	          3.41975270	          0.16631665	          0.00999999	          0.04543526	          0.01061724	          0.11196001	          0.01213529	          0.06170539	          0.00999999	          0.17488578	          0.00999999	          0.00999999	          0.07697633	          0.06625108	          0.08595928	          0.03251787	          0.02291831	          0.00999999	          0.14635782	          0.06148813	          0.04527717	          0.03748503	          0.12545082	          0.02282525	          0.00999999	          0.20609222	          0.00999999	          0.00999999	          0.34524157	
          0.76870822	         -7.76696922	          3.27709344	         -5.81070224	          0.91852741	          0.98554123	          0.00806093	         -2.19738735	         -3.15039073	          1.47346591	        -37.37803413	         -2.28036256	         30.97120198	         27.32177980	          2.21266651	         -3.07845942	        -12.77391249	          4.64756280	          0.09141700	          1.21812047	         -5.67227186	          3.21171035	          0.18773795	          0.03388988	          0.09007041	          0.00999999	          0.09225978	          0.00999999	          0.05084785	          0.00999999	          0.14411326	          0.00999999	          0.00999999	          0.06343175	          0.05459368	          0.18823316	          0.02679610	          0.01888566	          0.00999999	          0.14151044	          0.05066881	          0.03931538	          0.03088925	          0.10358573	          0.01880897	          0.00999999	          0.19413889	          0.00999999	          0.00999999	          0.32237663	
